<svg width="39" height="37" viewBox="0 0 39 37" fill="none" xmlns="http://www.w3.org/2000/svg">
<path d="M20.6582 32.4321C19.2928 32.4321 19.0009 32.4341 18.697 32.4361C17.6995 32.4421 16.668 32.4521 15.6244 32.4441C11.97 32.4741 7.47985 32.1882 4.00734 30.9287C3.94337 30.9047 3.89147 30.9847 3.93745 31.0347C4.55519 31.6864 5.22089 32.2941 5.92859 32.8519C9.02726 35.2869 12.9355 36.7402 17.1877 36.7402C19.6107 36.7402 21.9237 36.2684 24.0328 35.4128C25.3643 34.875 26.6177 34.1833 27.7672 33.3637C25.4062 32.8859 23.0792 32.4321 20.6582 32.4321Z" fill="white"/>
<path d="M15.3382 29.7471C21.8714 29.7471 25.9617 26.3345 27.731 22.0663C28.4007 20.447 28.7445 18.7118 28.7705 16.9885C28.7944 15.2653 28.5026 13.558 27.8949 12.0047C26.9073 9.46976 25.0621 7.33867 22.3852 6.22314C23.1849 7.33867 23.7566 8.56415 24.1125 9.83361C24.6922 11.9027 24.7002 14.0878 24.1944 16.1149C23.6846 18.158 22.6551 20.0512 21.1697 21.5166C19.3625 23.2978 16.8976 24.4393 13.8889 24.4493C9.43077 24.4653 4.87269 24.4793 0.408603 24.4793C0.216686 24.4793 0.0888071 24.6832 0.176769 24.8532C2.47778 29.3492 10.5823 29.6971 15.3403 29.7471H15.3382Z" fill="white"/>
<path d="M20.6582 32.4321C19.2928 32.4321 19.0009 32.4341 18.697 32.4361C17.6995 32.4421 16.668 32.4521 15.6244 32.4441C11.97 32.4741 7.47985 32.1882 4.00734 30.9287C3.94337 30.9047 3.89147 30.9847 3.93745 31.0347C4.55519 31.6864 5.22089 32.2941 5.92859 32.8519C9.02726 35.2869 12.9355 36.7402 17.1877 36.7402C19.6107 36.7402 21.9237 36.2684 24.0328 35.4128C25.3643 34.875 26.6177 34.1833 27.7672 33.3637C25.4062 32.8859 23.0792 32.4321 20.6582 32.4321Z" fill="white"/>
<path d="M15.3382 29.7471C21.8714 29.7471 25.9617 26.3345 27.731 22.0663C28.4007 20.447 28.7445 18.7118 28.7705 16.9885C28.7944 15.2653 28.5026 13.558 27.8949 12.0047C26.9073 9.46976 25.0621 7.33867 22.3852 6.22314C23.1849 7.33867 23.7566 8.56415 24.1125 9.83361C24.6922 11.9027 24.7002 14.0878 24.1944 16.1149C23.6846 18.158 22.6551 20.0512 21.1697 21.5166C19.3625 23.2978 16.8976 24.4393 13.8889 24.4493C9.43077 24.4653 4.87269 24.4793 0.408603 24.4793C0.216686 24.4793 0.0888071 24.6832 0.176769 24.8532C2.47778 29.3492 10.5823 29.6971 15.3403 29.7471H15.3382Z" fill="white"/>
<path d="M38.1213 32.2841L33.5732 26.6145L33.6652 26.3966C39.4727 14.4898 30.6304 0.215886 17.2522 0.259867C4.71157 0.467778 0.535413 10.8713 0.00763994 12.3447C-0.0223472 12.4286 0.0395989 12.5166 0.12956 12.5166C3.5221 12.5166 10.3052 12.8704 10.895 8.49232C11.4707 12.8764 18.2698 12.5266 21.6623 12.5246C21.7523 12.5246 21.8143 12.4346 21.7843 12.3507C20.4829 8.71823 18.0399 5.57759 14.8453 3.41052C23.2237 2.0631 31.0643 8.57829 31.4562 16.8687C31.4562 16.9027 31.4562 16.9367 31.4562 16.9707C31.75 22.3924 28.9052 27.4042 24.5531 30.0391L37.9953 32.498C38.1133 32.52 38.1953 32.3821 38.1193 32.2901L38.1213 32.2841Z" fill="white"/>
</svg>
