<svg width="144" height="21" viewBox="0 0 144 21" fill="none" xmlns="http://www.w3.org/2000/svg">
<path d="M6.492 16.5C6.09733 16.5 5.73467 16.404 5.404 16.212C5.084 16.02 4.828 15.7587 4.636 15.428C4.444 15.0973 4.348 14.7347 4.348 14.34V13.572H6.268V14.276C6.268 14.3613 6.29467 14.4307 6.348 14.484C6.40133 14.5373 6.47067 14.564 6.556 14.564H13.628C13.7133 14.564 13.7827 14.5373 13.836 14.484C13.9 14.4307 13.932 14.3613 13.932 14.276V11.988C13.932 11.9133 13.9 11.8493 13.836 11.796C13.7827 11.732 13.7133 11.7 13.628 11.7H6.492C6.09733 11.7 5.73467 11.604 5.404 11.412C5.084 11.22 4.828 10.964 4.636 10.644C4.444 10.3133 4.348 9.95067 4.348 9.556V7.14C4.348 6.74533 4.444 6.38267 4.636 6.052C4.828 5.72133 5.084 5.46 5.404 5.268C5.73467 5.076 6.09733 4.98 6.492 4.98H13.708C14.1027 4.98 14.46 5.076 14.78 5.268C15.1107 5.46 15.372 5.72133 15.564 6.052C15.7667 6.38267 15.868 6.74533 15.868 7.14V7.908H13.932V7.204C13.932 7.11867 13.9 7.04933 13.836 6.996C13.7827 6.94267 13.7133 6.916 13.628 6.916H6.556C6.47067 6.916 6.40133 6.94267 6.348 6.996C6.29467 7.04933 6.268 7.11867 6.268 7.204V9.492C6.268 9.56667 6.29467 9.636 6.348 9.7C6.40133 9.75333 6.47067 9.78 6.556 9.78H13.708C14.1027 9.78 14.46 9.876 14.78 10.068C15.1107 10.26 15.372 10.5213 15.564 10.852C15.7667 11.172 15.868 11.5293 15.868 11.924V14.34C15.868 14.7347 15.7667 15.0973 15.564 15.428C15.372 15.7587 15.1107 16.02 14.78 16.212C14.46 16.404 14.1027 16.5 13.708 16.5H6.492ZM17.6151 16.5V4.98H19.5351V9.78H27.4711V4.98H29.3911V16.5H27.4711V11.7H19.5351V16.5H17.6151ZM33.3365 16.5C32.9418 16.5 32.5792 16.404 32.2485 16.212C31.9178 16.02 31.6565 15.7587 31.4645 15.428C31.2725 15.0973 31.1765 14.7347 31.1765 14.34V7.14C31.1765 6.74533 31.2725 6.38267 31.4645 6.052C31.6565 5.72133 31.9178 5.46 32.2485 5.268C32.5792 5.076 32.9418 4.98 33.3365 4.98H40.5365C40.9312 4.98 41.2885 5.076 41.6085 5.268C41.9392 5.46 42.2005 5.72133 42.3925 6.052C42.5952 6.38267 42.6965 6.74533 42.6965 7.14V14.34C42.6965 14.7347 42.5952 15.0973 42.3925 15.428C42.2005 15.7587 41.9392 16.02 41.6085 16.212C41.2885 16.404 40.9312 16.5 40.5365 16.5H33.3365ZM33.3845 14.564H40.4725C40.5472 14.564 40.6112 14.5373 40.6645 14.484C40.7285 14.4307 40.7605 14.3613 40.7605 14.276V7.204C40.7605 7.11867 40.7285 7.04933 40.6645 6.996C40.6112 6.94267 40.5472 6.916 40.4725 6.916H33.3845C33.3098 6.916 33.2405 6.94267 33.1765 6.996C33.1232 7.04933 33.0965 7.11867 33.0965 7.204V14.276C33.0965 14.3613 33.1232 14.4307 33.1765 14.484C33.2405 14.5373 33.3098 14.564 33.3845 14.564ZM47.8145 16.5L43.6225 4.98H45.6705L48.5825 12.964L51.4945 4.98H53.4465L56.3745 12.964L59.2865 4.98H61.3345L57.1425 16.5H55.5905L52.4705 7.94L49.3505 16.5H47.8145ZM67.5835 16.5V4.98H69.7755L74.0955 10.132L78.3995 4.98H80.6075V16.5H78.6715V7.668L74.0955 13.124L69.5035 7.684V16.5H67.5835ZM84.5553 16.5C84.1606 16.5 83.7979 16.404 83.4673 16.212C83.1366 16.02 82.8753 15.7587 82.6833 15.428C82.4913 15.0973 82.3953 14.7347 82.3953 14.34V7.14C82.3953 6.74533 82.4913 6.38267 82.6833 6.052C82.8753 5.72133 83.1366 5.46 83.4673 5.268C83.7979 5.076 84.1606 4.98 84.5553 4.98H91.7553C92.1499 4.98 92.5073 5.076 92.8273 5.268C93.1579 5.46 93.4193 5.72133 93.6113 6.052C93.8139 6.38267 93.9153 6.74533 93.9153 7.14V14.34C93.9153 14.7347 93.8139 15.0973 93.6113 15.428C93.4193 15.7587 93.1579 16.02 92.8273 16.212C92.5073 16.404 92.1499 16.5 91.7553 16.5H84.5553ZM84.6033 14.564H91.6913C91.7659 14.564 91.8299 14.5373 91.8833 14.484C91.9473 14.4307 91.9793 14.3613 91.9793 14.276V7.204C91.9793 7.11867 91.9473 7.04933 91.8833 6.996C91.8299 6.94267 91.7659 6.916 91.6913 6.916H84.6033C84.5286 6.916 84.4593 6.94267 84.3953 6.996C84.3419 7.04933 84.3153 7.11867 84.3153 7.204V14.276C84.3153 14.3613 84.3419 14.4307 84.3953 14.484C84.4593 14.5373 84.5286 14.564 84.6033 14.564ZM104.989 16.5L101.453 12.276H103.965L107.149 16.052V16.5H104.989ZM95.6773 16.5V4.996H105.037C105.432 4.996 105.789 5.09733 106.109 5.3C106.44 5.492 106.701 5.75333 106.893 6.084C107.096 6.404 107.197 6.76133 107.197 7.156V10.324C107.197 10.708 107.096 11.0653 106.893 11.396C106.701 11.7267 106.44 11.988 106.109 12.18C105.789 12.372 105.432 12.468 105.037 12.468L97.5973 12.484V16.5H95.6773ZM97.8853 10.532H104.973C105.048 10.532 105.112 10.5053 105.165 10.452C105.229 10.3987 105.261 10.3293 105.261 10.244V7.204C105.261 7.12933 105.229 7.06533 105.165 7.012C105.112 6.948 105.048 6.916 104.973 6.916H97.8853C97.8106 6.916 97.7413 6.948 97.6773 7.012C97.6239 7.06533 97.5973 7.12933 97.5973 7.204V10.244C97.5973 10.3293 97.6239 10.3987 97.6773 10.452C97.7413 10.5053 97.8106 10.532 97.8853 10.532ZM108.912 16.5V4.98H119.488V6.916H110.848V9.78H117.808V11.7H110.848V14.564H119.488V16.5H108.912Z" fill="url(#paint0_angular_2769_12782)"/>
<path d="M139.691 8.71052C140.77 9.78867 140.77 11.5367 139.691 12.6148L133.802 18.5L132.826 17.5238L139.04 11.3133C139.399 10.9539 139.399 10.3713 139.04 10.0119L132.5 3.47603L133.477 2.5L139.691 8.71052Z" fill="url(#paint1_angular_2769_12782)"/>
<defs>
<radialGradient id="paint0_angular_2769_12782" cx="0" cy="0" r="1" gradientUnits="userSpaceOnUse" gradientTransform="translate(62 -6.61111) rotate(83.3206) scale(66.1776 131.396)">
<stop offset="0.169331" stop-color="#C8A5E7"/>
<stop offset="0.209313" stop-color="white"/>
<stop offset="0.388494" stop-color="#AF9CFD"/>
<stop offset="0.546126" stop-color="white"/>
<stop offset="0.594957" stop-color="#A291DA"/>
<stop offset="0.618062" stop-color="#E5E7FC"/>
<stop offset="0.837991" stop-color="#A291DA"/>
</radialGradient>
<radialGradient id="paint1_angular_2769_12782" cx="0" cy="0" r="1" gradientUnits="userSpaceOnUse" gradientTransform="translate(130.278 10.5) rotate(2.52173) scale(23.9244 18.0739)">
<stop offset="0.169331" stop-color="#C8A5E7"/>
<stop offset="0.209313" stop-color="white"/>
<stop offset="0.388494" stop-color="#AF9CFD"/>
<stop offset="0.546126" stop-color="white"/>
<stop offset="0.594957" stop-color="#A291DA"/>
<stop offset="0.618062" stop-color="#E5E7FC"/>
<stop offset="0.837991" stop-color="#A291DA"/>
</radialGradient>
</defs>
</svg>
